<svg height="512pt" viewBox="0 0 512 512" width="512pt" xmlns="http://www.w3.org/2000/svg"><path d="m91 241.863281h150v30h-150zm0 0"/><path d="m91 301.863281h150v30h-150zm0 0"/><path d="m91 361.863281h150v30h-150zm0 0"/><path d="m338.15625 301.863281 21.769531-54.429687-27.851562-11.140625-38.230469 95.570312h60l-21.769531 54.429688 27.851562 11.140625 38.230469-95.570313zm0 0"/><path d="m481 421.863281v-240h-30v-30h30v-30h-30v-30h30v-30h-30v-25.699219l-105-36.164062-90 31-90-31-105 36.164062v25.699219h-30v30h30v30h-30v30h30v30h-30v240h-31v90h512v-90zm-60-364.300781v4.300781h-30v30h30v30h-30v30h30v30h-150v-30h30v-30h-30v-30h30v-30h-30v-4.300781l75-25.832031zm-330 94.300781h30v-30h-30v-30h30v-30h-30v-4.300781l75-25.832031 75 25.832031v4.300781h-30v30h30v30h-30v30h30v30h-150zm-30 60h390v210h-390zm421 270h-452v-30h452zm0 0"/></svg>