<svg height="512pt" viewBox="-31 0 512 512" width="512pt" xmlns="http://www.w3.org/2000/svg"><path d="m0 0v512h450v-512zm420 482h-390v-452h390zm0 0"/><path d="m330 91h-210v330h210zm-30 30v210h-150v-210zm-150 270v-30h150v30zm0 0"/><path d="m225 301c24.8125 0 45-20.1875 45-45s-20.1875-45-45-45-45 20.1875-45 45 20.1875 45 45 45zm0-60c8.269531 0 15 6.730469 15 15s-6.730469 15-15 15-15-6.730469-15-15 6.730469-15 15-15zm0 0"/><path d="m375 54.78125 21.210938 21.214844-21.210938 21.210937-21.214844-21.210937zm0 0"/><path d="m75 54.785156 21.214844 21.214844-21.214844 21.210938-21.210938-21.210938zm0 0"/><path d="m375.007812 414.78125 21.210938 21.214844-21.210938 21.210937-21.214843-21.210937zm0 0"/><path d="m75.007812 414.785156 21.210938 21.214844-21.210938 21.210938-21.214843-21.210938zm0 0"/></svg>