<svg height="512pt" viewBox="0 0 512.00068 512" width="512pt" xmlns="http://www.w3.org/2000/svg"><path d="m501.308594 82.265625-8.679688-20.480469-88.710937 88.707032-35.34375-7.066407-7.066407-35.34375 88.710938-88.707031-20.484375-8.679688c-49.820313-21.109374-108.574219-10.69921825-148.121094 28.84375-37.097656 37.101563-48.484375 91.035157-32.496093 138.503907l-87.671876 87.394531c-14.851562 14.847656-38.964843 33.347656-69.527343 37.15625-23.351563 2.910156-44.507813 13.257812-61.179688 29.933594-45.746093 45.742187-40.078125 122.417968 14.648438 160.703125 34.863281 24.390625 83.667969 24.550781 118.675781.320312 24.171875-16.730469 39.992188-41.667969 44.539062-70.21875 4.453126-27.953125 14.664063-50.078125 30.332032-65.746093l94.992187-94.714844c47.421875 15.988281 101.382813 4.664062 138.535157-32.488282 39.496093-39.492187 49.980468-98.238281 28.847656-148.117187zm-50.050782 126.914063c-30.40625 30.40625-75.628906 39.210937-115.21875 22.441406l-9.289062-3.9375-109.003906 108.683594c-20.25 20.25-33.289063 47.921874-38.757813 82.246093-3.25 20.394531-14.613281 38.25-31.992187 50.28125-24.886719 17.222657-59.601563 17.125-84.417969-.234375-40.121094-28.070312-42.6875-82.875-10.636719-114.925781 11.914063-11.914063 27.015625-19.304687 43.683594-21.382813 30.875-3.84375 60.964844-19.652343 87.007812-45.691406l101.699219-101.378906-3.949219-9.320312c-16.773437-39.585938-7.96875-84.8125 22.4375-115.214844 20.167969-20.167969 46.855469-30.832032 74.09375-30.832032 6.21875 0 12.46875.554688 18.671876 1.679688l-66.632813 66.632812 14.136719 70.683594 70.683594 14.136719 66.632812-66.632813c6.054688 33.382813-4.378906 67.996094-29.148438 92.765626zm0 0"/><path d="m73.148438 374.9375c-17.539063 17.539062-17.539063 46.074219 0 63.617188 17.578124 17.578124 46.035156 17.578124 63.613281 0 17.539062-17.542969 17.539062-46.078126 0-63.617188-17.578125-17.578125-46.03125-17.582031-63.613281 0zm42.410156 42.410156c-5.859375 5.859375-15.34375 5.859375-21.207032 0-5.84375-5.84375-5.84375-15.359375 0-21.203125 5.863282-5.859375 15.347657-5.863281 21.207032 0 5.847656 5.84375 5.847656 15.355469 0 21.203125zm0 0"/></svg>