<svg height="512pt" viewBox="-28 0 512 512" width="512pt" xmlns="http://www.w3.org/2000/svg"><path d="m430.859375 364.671875c-6.050781-36.316406-37.167969-62.671875-73.980469-62.671875h-55.769531c19.484375-19.074219 31.597656-45.644531 31.597656-75v-45h30v-45c0-19.96875-13.078125-36.929688-31.113281-42.796875-4.476562-25.589844-22.113281-47.308594-46.21875-56.917969l4.050781-37.285156h-123.4375l4.050781 37.285156c-24.105468 9.609375-41.742187 31.328125-46.21875 56.917969-18.035156 5.867187-31.113281 22.828125-31.113281 42.796875v45h30v45c0 29.355469 12.113281 55.925781 31.597657 75h-55.769532c-36.8125 0-67.929687 26.355469-73.980468 62.671875l-24.554688 147.328125h455.414062zm-113.03125 46.113281 14.878906 29.753906v41.460938h-90v-92.578125c17.457031-6.195313 30-22.867187 30-42.421875v-15h42.375zm-180.121094-.246094v-78.539062h45v15c0 19.554688 12.539063 36.226562 30 42.421875v92.578125h-90v-41.460938zm105-78.539062v15c0 8.269531-6.730469 15-15 15s-15-6.730469-15-15v-15zm57.398438-240h-20.675781l2.488281-22.910156c8.394531 5.394531 14.828125 13.484375 18.1875 22.910156zm-44.117188-62-6.734375 62h-43.09375l-6.734375-62zm-82.492187 39.089844 2.488281 22.910156h-20.675781c3.355468-9.425781 9.792968-17.515625 18.1875-22.910156zm-50.789063 67.910156c0-8.269531 6.730469-15 15-15h180c8.269531 0 15 6.730469 15 15v15h-210zm30 90v-45h150v45c0 41.355469-33.644531 75-75 75s-75-33.644531-75-75zm-98.5625 142.601562c3.632813-21.789062 22.300781-37.601562 44.390625-37.601562h9.171875v71.460938l-15 30v48.539062h-57.292969zm308.5625 112.398438v-48.539062l-15.121093-30.246094-2.484376-71.214844h11.777344c22.089844 0 40.757813 15.8125 44.390625 37.601562l18.730469 112.398438zm0 0"/><path d="m227.707031 242c-8.269531 0-15-6.730469-15-15h-30c0 24.8125 20.1875 45 45 45s45-20.1875 45-45h-30c0 8.269531-6.730469 15-15 15zm0 0"/></svg>