<svg height="512pt" viewBox="0 -31 512 512" width="512pt" xmlns="http://www.w3.org/2000/svg"><path d="m0 0v450h512v-450zm482 420h-452v-390h452zm0 0"/><path d="m196 210h30v30h-30zm0 0"/><path d="m286 210h30v30h-30zm0 0"/><path d="m256 375c82.710938 0 150-67.289062 150-150s-67.289062-150-150-150-150 67.289062-150 150 67.289062 150 150 150zm0-270c66.167969 0 120 53.832031 120 120s-53.832031 120-120 120-120-53.832031-120-120 53.832031-120 120-120zm0 0"/><path d="m76 53.785156 21.214844 21.214844-21.214844 21.210938-21.210938-21.210938zm0 0"/><path d="m76.007812 353.785156 21.210938 21.214844-21.210938 21.210938-21.214843-21.210938zm0 0"/><path d="m436.007812 353.78125 21.210938 21.210938-21.210938 21.214843-21.214843-21.214843zm0 0"/><path d="m436.003906 53.78125 21.210938 21.210938-21.210938 21.214843-21.214844-21.214843zm0 0"/></svg>