<svg height="512pt" viewBox="0 -8 512 512" width="512pt" xmlns="http://www.w3.org/2000/svg"><path d="m512 370.902344-31-52.5v-63.402344h-30v-45c0-82.710938-67.289062-150-150-150s-150 67.289062-150 150v15c0 57.898438 47.101562 105 105 105 15.753906 0 30.703125-3.492188 44.125-9.734375-21.980469 24.378906-53.789062 39.734375-89.125 39.734375-66.167969 0-120-53.832031-120-120h30v-63.515625l30-52.5v-63.984375h-30v-60h-30v60h-30v-60h-30v60h-31v64.097656l31 52.5v63.402344h30c0 82.710938 67.289062 150 150 150s150-67.289062 150-150v-15c0-57.898438-47.101562-105-105-105-15.753906 0-30.703125 3.492188-44.125 9.734375 21.980469-24.378906 53.789062-39.734375 89.125-39.734375 66.167969 0 120 53.832031 120 120v45h-30v63.515625l-30 52.5v63.984375h30v60h30v-60h30v60h30v-60h31zm-482-255v-25.902344h91v26.015625l-30 52.5v41.484375h-30v-41.597656zm301 109.097656c0 41.355469-33.644531 75-75 75s-75-33.644531-75-75 33.644531-75 75-75 75 33.644531 75 75zm151 180h-91v-26.015625l30-52.5v-41.484375h30v41.597656l31 52.5zm0 0"/></svg>