<svg height="512pt" viewBox="0 0 512 512" width="512pt" xmlns="http://www.w3.org/2000/svg"><path d="m461.460938 71.753906 50.535156-50.539062-21.214844-21.214844-50.535156 50.539062-63.648438 21.214844-41.726562 41.726563-53.042969 10.609375-281.828125 281.828125 106.082031 106.082031 281.828125-281.828125 10.609375-53.042969 41.726563-41.722656zm-310.144532 310.144532 42.433594-42.433594 21.21875 21.21875-42.4375 42.433594zm106.082032-106.082032 21.21875 21.214844-42.433594 42.433594-21.21875-21.214844zm21.21875-21.214844 21.214843-21.21875 21.21875 21.21875-21.21875 21.214844zm81.652343-39.222656-18.003906 18.003906-42.433594-42.433593-190.949219 190.949219 42.433594 42.433593-45.234375 45.234375-63.648437-63.648437 254.1875-254.1875 40.710937-8.144531 31.082031 31.078124zm53.75-96.183594-29.320312 29.320313-21.214844-21.214844 29.320313-29.320312 31.824218-10.609375zm0 0"/></svg>