<svg height="512pt" viewBox="0 -91 512 512" width="512pt" xmlns="http://www.w3.org/2000/svg"><path d="m165 60c-57.898438 0-105 47.101562-105 105s47.101562 105 105 105 105-47.101562 105-105-47.101562-105-105-105zm0 180c-41.355469 0-75-33.644531-75-75s33.644531-75 75-75 75 33.644531 75 75-33.644531 75-75 75zm0 0"/><path d="m482 150v30h-152v-45c0-74.4375-60.5625-135-135-135h-60c-74.4375 0-135 60.5625-135 135v195h330v-30h182c0-24.027344 0-131.023438 0-150zm-182 150h-270v-165c0-57.898438 47.101562-105 105-105h60c57.898438 0 105 47.101562 105 105zm30-90h31v30h30v-30h30v30h30v-30h31v60h-152zm0 0"/><path d="m179.230469 124.742188-28.460938-9.484376-21.582031 64.742188h30l-8.417969 25.257812 28.460938 9.484376 21.582031-64.742188h-30zm0 0"/></svg>