<svg height="512pt" viewBox="0 0 512 512" width="512pt" xmlns="http://www.w3.org/2000/svg"><path d="m512 61h-66.660156l-30-61h-318.679688l-30 61h-66.660156v330h61v32.855469l34.796875 88.144531h320.40625l34.796875-88.144531v-32.855469h61zm-396.660156-31h281.320312l15.246094 31h-311.8125zm305.660156 388.144531-25.203125 63.855469h-279.59375l-25.203125-63.855469v-27.144531h60v60h30v-60h30v60h30v-60h30v60h30v-60h30v60h30v-60h60zm61-57.144531h-452v-270h452zm0 0"/><path d="m451 121h-390v150h390zm-30 120h-330v-90h330zm0 0"/><path d="m331 301h90v30h-90zm0 0"/><path d="m211 301h90v30h-90zm0 0"/><path d="m91 301h90v30h-90zm0 0"/><path d="m361 181h30v30h-30zm0 0"/><path d="m301 181h30v30h-30zm0 0"/><path d="m241 181h30v30h-30zm0 0"/></svg>