<svg height="512pt" viewBox="0 -31 512 512" width="512pt" xmlns="http://www.w3.org/2000/svg"><path d="m0 0v450h512v-450zm482 420h-452v-390h452zm0 0"/><path d="m76 53.785156 21.214844 21.214844-21.214844 21.210938-21.210938-21.210938zm0 0"/><path d="m76.007812 353.785156 21.210938 21.214844-21.210938 21.210938-21.214843-21.210938zm0 0"/><path d="m435.992188 396.21875-21.210938-21.210938 21.210938-21.214843 21.214843 21.214843zm0 0"/><path d="m436.003906 53.78125 21.210938 21.210938-21.210938 21.214843-21.214844-21.214843zm0 0"/><path d="m118.988281 316.523438 8.984375 13.476562h256.054688l8.984375-13.472656c37.066406-55.601563 37.066406-127.453125 0-183.050782l-8.984375-13.476562h-256.054688l-8.984375 13.472656c-37.066406 55.601563-37.066406 127.453125 0 183.050782zm24.960938-166.410157.078125-.113281h223.945312l.078125.113281c30.324219 45.492188 30.324219 104.28125 0 149.769531l-.078125.117188h-223.945312l-.078125-.113281c-30.324219-45.492188-30.324219-104.28125 0-149.773438zm0 0"/><path d="m181 180h30v90h-30zm0 0"/><path d="m301 180h30v90h-30zm0 0"/></svg>