<svg height="512pt" viewBox="0 0 512 512" width="512pt" xmlns="http://www.w3.org/2000/svg"><path d="m476.242188 0-132.460938 58.597656v45.980469l-86.820312 86.824219-21.214844-21.214844-63.640625 63.640625 6.214843 6.210937v6.214844c0 8.269532-6.730468 15-15 15h-6.214843l-6.210938-6.214844-137.703125 137.667969c-17.585937 17.585938-17.589844 46.054688 0 63.640625l42.425782 42.425782c17.582031 17.585937 46.050781 17.589843 63.636718.003906l137.707032-137.667969-6.214844-6.214844v-6.214843c0-8.269532 6.730468-15 15-15h6.214844l6.210937 6.214843 63.640625-63.640625-21.214844-21.214844 86.824219-86.820312h45.980469l58.597656-132.460938zm-378.199219 477.5625c-5.863281 5.859375-15.351563 5.859375-21.214844 0l-10.601563-10.605469 95.273438-95.242187-21.210938-21.214844-95.277343 95.246094-10.609375-10.609375c-5.859375-5.863281-5.863282-15.351563 0-21.210938l116.492187-116.457031 63.636719 63.636719zm127.101562-148.273438-42.433593-42.433593c9.257812-4.441407 16.773437-11.953125 21.210937-21.210938l42.4375 42.433594c-9.261719 4.4375-16.773437 11.953125-21.214844 21.210937zm53.027344-31.820312-63.636719-63.640625 21.210938-21.214844 63.640625 63.640625zm155.695313-159.25h-38.871094l-95.609375 95.609375-21.214844-21.214844 95.609375-95.609375v-38.871094l95.792969-42.375 6.667969 6.667969zm0 0"/></svg>