<svg height="512pt" viewBox="0 0 512 512" width="512pt" xmlns="http://www.w3.org/2000/svg"><path d="m331 30h90v30h-90zm0 0"/><path d="m121 90h30v-30h30v-30h-30v-30h-30v30h-30v30h30zm0 0"/><path d="m301 120v-60h-30v150h30v-60h181v272h-61v15c0 8.269531-6.730469 15-15 15s-15-6.730469-15-15v-15h-30v15c0 8.269531-6.730469 15-15 15s-15-6.730469-15-15v-15h-30v15c0 8.269531-6.730469 15-15 15s-15-6.730469-15-15v-15h-61.507812c-6.96875-34.191406-37.273438-60-73.492188-60s-66.523438 25.808594-73.492188 60h-32.507812v-272h181v30h30v-90h-30v30h-211v332h62.507812c6.96875 34.191406 37.273438 60 73.492188 60s66.523438-25.808594 73.492188-60h34.078124c6.191407 17.460938 22.875 30 42.429688 30 11.515625 0 22.035156-4.347656 30-11.484375 7.96875 7.136719 18.484375 11.484375 30 11.484375s22.035156-4.347656 30-11.484375c7.96875 7.136719 18.484375 11.484375 30 11.484375 19.558594 0 36.238281-12.539062 42.429688-30h63.570312v-332zm-165 362c-24.8125 0-45-20.1875-45-45s20.1875-45 45-45 45 20.1875 45 45-20.1875 45-45 45zm0 0"/></svg>