<svg height="511.999pt" viewBox="1 1 511.999 511.999" width="511.999pt" xmlns="http://www.w3.org/2000/svg"><path d="m464.414062 68.804688 47.585938-47.589844-21.21875-21.214844-47.585938 47.585938h-42.433593l-121.085938 121.085937-42.433593-42.433594-36.21875 36.21875v42.433594l-171.703126 171.703125 21.21875 21.21875-42.433593 42.433594 21.214843 21.214844-29.320312 29.320312 21.214844 21.21875 29.324218-29.320312 21.214844 21.214843 42.433594-42.433593 21.21875 21.21875 171.703125-171.707032h42.433594l36.21875-36.21875-42.433594-42.429687 121.085937-121.085938zm-270.664062 228.226562-21.21875-21.214844 21.21875-21.214844 21.21875 21.214844zm-21.214844 21.21875-42.433594 42.433594-21.21875-21.214844 42.433594-42.433594zm-100.78125 143.210938-21.214844-21.214844 21.214844-21.21875 21.21875 21.21875zm265.359375-180.492188h-42.433593l-159.277344 159.277344-63.648438-63.652344 15.914063-15.910156 42.433593 42.433594 127.296876-127.300782-42.433594-42.433594 16.066406-16.0625v-42.433593l6.210938-6.214844 106.085937 106.082031zm97.296875-182.160156-112.300781 112.296875-21.214844-21.214844 112.296875-112.300781h21.21875zm0 0"/></svg>