<svg height="512pt" viewBox="0 0 512 512" width="512pt" xmlns="http://www.w3.org/2000/svg"><path d="m511 345v-345h-511v345h210v77h-24.269531l-30 60h-35.730469v30h270v-30h-35.730469l-30-60h-24.269531v-77zm-361-30v-75h90v75zm0-180h90v75h-90zm-30 75h-90v-75h90zm240 0h-90v-75h90zm30-75h91v75h-91zm-120-30v-75h90v75zm-30 0h-90v-75h90zm30 135h90v75h-90zm120 75v-75h91v75zm91-210h-91v-75h91zm-361-75v75h-90v-75zm-90 210h90v75h-90zm290.730469 242h-131.460938l15-30h101.460938zm-50.730469-60h-30v-77h30zm0 0"/></svg>