<svg height="512pt" viewBox="0 -31 512 512" width="512pt" xmlns="http://www.w3.org/2000/svg"><path d="m0 0v450h512v-450zm482 420h-452v-390h452zm0 0"/><path d="m391 90h-270v270h270zm-30 240h-210v-210h210zm0 0"/><path d="m331 180h-30v-30h-90v30h-30v120h150zm-30 90h-30v-30h-30v30h-30v-60h30v-30h30v30h30zm0 0"/><path d="m436.003906 53.78125 21.210938 21.210938-21.210938 21.214843-21.214844-21.214843zm0 0"/><path d="m436 396.21875-21.210938-21.214844 21.210938-21.210937 21.214844 21.210937zm0 0"/><path d="m76 53.785156 21.214844 21.214844-21.214844 21.210938-21.210938-21.210938zm0 0"/><path d="m75.996094 396.214844-21.210938-21.210938 21.210938-21.214844 21.214844 21.214844zm0 0"/></svg>