<svg height="512pt" viewBox="0 -61 512 512" width="512pt" xmlns="http://www.w3.org/2000/svg"><path d="m512 90h-61v-24.269531l-71.460938-35.730469h-18.539062v-30h-361v210h54.417969l-25.714844 180h221.566406l-32.558593-65.125c-7.675782-15.34375-23.097657-24.875-40.25-24.875h-15.59375l4.285156-30h70.660156l20-60h104.1875v-30h18.550781c74.222657-37.109375 70.800781-35.40625 71.449219-35.730469v-24.269531h61zm-181-30h-90v-30h90zm-186.582031 150-12.855469 90h-59.695312l12.855468-90zm33.042969 120c5.714843 0 10.855468 3.175781 13.414062 8.292969l10.855469 21.707031h-138.433594l4.285156-30zm37.726562-90h-44.75l4.285156-30h50.464844zm-185.1875-60v-150h181v60h120v90zm391-54.269531-48.539062 24.269531h-11.460938v-90h11.460938l48.539062 24.269531zm0 0"/><path d="m61 60h120v30h-120zm0 0"/><path d="m61 120h120v30h-120zm0 0"/><path d="m271 120h30v30h-30zm0 0"/></svg>