<svg height="512pt" viewBox="0 0 512 512" width="512pt" xmlns="http://www.w3.org/2000/svg"><path d="m512 30v-30h-512v30h241v62h-25.8125l-24.496094 73.488281c-58.589844 25.351563-99.691406 83.71875-99.691406 151.511719v15h61.074219c7.304687 50.816406 51.121093 90 103.925781 90s96.621094-39.183594 103.925781-90h61.074219v-15c0-67.792969-41.101562-126.160156-99.691406-151.511719l-24.496094-73.488281h-25.8125v-62zm-256 362c-36.21875 0-66.523438-25.808594-73.492188-60h146.980469c-6.964843 34.191406-37.269531 60-73.488281 60zm134.171875-90h-268.34375c7.484375-67.40625 64.804687-120 134.171875-120s126.6875 52.59375 134.171875 120zm-104.0625-147.238281c-9.765625-1.808594-19.828125-2.761719-30.109375-2.761719s-20.34375.953125-30.109375 2.761719l10.921875-32.761719h38.375zm0 0"/><path d="m241 452h30v60h-30zm0 0"/><path d="m374.492188 456.710938-33.640626-33.640626 21.214844-21.210937 33.640625 33.636719zm0 0"/><path d="m137.507812 456.710938-21.214843-21.214844 33.640625-33.640625 21.210937 21.214843zm0 0"/></svg>