<svg height="512pt" viewBox="-31 0 512 512" width="512pt" xmlns="http://www.w3.org/2000/svg"><path d="m360 373.460938v-146.460938c0-74.4375-60.5625-135-135-135s-135 60.5625-135 135v146.460938l-24.269531 48.539062h-35.730469v30h90v60h30v-60h150v60h30v-60h90v-30h-35.730469zm-240-146.460938c0-57.898438 47.101562-105 105-105s105 47.101562 105 105v135h-90v-92.578125c17.460938-6.195313 30-22.867187 30-42.421875 0-24.8125-20.1875-45-45-45s-45 20.1875-45 45c0 19.554688 12.539062 36.226562 30 42.421875v92.578125h-90zm90 0c0-8.269531 6.730469-15 15-15s15 6.730469 15 15-6.730469 15-15 15-15-6.730469-15-15zm-95.730469 165h221.460938l15 30h-251.460938zm0 0"/><path d="m210 0h30v62h-30zm0 0"/><path d="m373.492188 57.292969 21.210937 21.210937-42.425781 42.425782-21.210938-21.210938zm0 0"/><path d="m390 212h60v30h-60zm0 0"/><path d="m0 212h60v30h-60zm0 0"/><path d="m76.507812 57.292969 42.425782 42.425781-21.210938 21.214844-42.425781-42.429688zm0 0"/></svg>