<svg height="512pt" viewBox="0 0 512.001 512" width="512pt" xmlns="http://www.w3.org/2000/svg"><path d="m481.285156 0-124.859375 7.066406-60.023437 60.023438-14.144532 56.574218-32.742187 32.746094-106.078125 21.214844-143.4375 143.4375 63.644531 63.644531 115.800781-115.796875 79.542969-15.910156-15.980469 79.640625-115.714843 115.714844 63.644531 63.644531 143.4375-143.4375 21.214844-106.078125 32.746094-32.742187 56.574218-14.144532 60.023438-60.023437 7.066406-124.859375zm-111.738281 36.375 89.953125-5.089844-34.691406 34.691406c-16.726563-7.96875-37.386719-5.046874-51.214844 8.78125-14.121094 14.121094-16.640625 34.855469-8.800781 51.234376l-23.019531 23.023437-27.9375-27.941406 9.660156-38.644531zm25.261719 59.601562c5.863281-5.867187 15.351562-5.867187 21.214844 0 5.863281 5.863282 5.863281 15.347657 0 21.214844-5.847657 5.847656-15.367188 5.847656-21.214844 0-5.863282-5.863281-5.863282-15.351562 0-21.214844zm-230.15625 145.292969-101.007813 101.007813-21.214843-21.214844 115.800781-115.800781 93.75-18.75c30.109375 30.109375 25.46875 25.46875 26.144531 26.148437l-7.394531 7.394532zm26.285156 228.300781-21.214844-21.214843 100.914063-100.917969 21.304687-106.164062 7.398438-7.398438 26.148437 26.144531-18.75 93.75zm150.835938-235.695312c-7.753907-7.75-55.894532-55.890625-63.648438-63.644531l21.214844-21.214844 63.648437 63.644531zm87.796874-45.371094-38.644531 9.664063-27.941406-27.941407 23.042969-23.039062c16.730468 7.972656 37.375 5.054688 51.210937-8.78125 14.121094-14.121094 16.644531-34.851562 8.800781-51.234375l34.675782-34.675781-5.09375 89.953125zm0 0"/></svg>