<svg height="512pt" viewBox="0 -15 512.00057 512" width="512pt" xmlns="http://www.w3.org/2000/svg"><path d="m436.789062 482.992188h-361.578124c-27.335938 0-51.726563-14.179688-65.25-37.9375-13.472657-23.667969-13.265626-51.761719.539062-75.214844l180.941406-333.089844c13.664063-23.011719 37.796875-36.75 64.558594-36.75s50.894531 13.738281 64.558594 36.75l180.941406 333.089844c13.804688 23.453125 14.011719 51.546875.539062 75.214844-13.523437 23.757812-37.914062 37.9375-65.25 37.9375zm-219.386718-431.136719-180.925782 333.058593c-8.371093 14.101563-8.527343 31.03125-.414062 45.285157 8.113281 14.25 22.75 22.761719 39.148438 22.761719h361.578124c16.402344 0 31.035157-8.507813 39.148438-22.761719 8.113281-14.253907 7.960938-31.183594-.414062-45.285157l-180.925782-333.058593c-8.21875-13.671875-22.628906-21.824219-38.597656-21.824219s-30.375 8.152344-38.597656 21.824219zm0 0"/><path d="m284.875 422.929688h-43.890625v-90.097657h-90.375l77.484375-180.191406h42.921875v90.097656h73.324219zm-88.660156-120.128907h74.800781v66.296875l31.789063-96.328125h-61.820313v-74.085937zm0 0"/></svg>