<svg height="512pt" viewBox="0 0 512 512" width="512pt" xmlns="http://www.w3.org/2000/svg"><path d="m436 30h76v-30h-76c-69.367188 0-126.675781 52.59375-134.160156 120h-30.839844v-120h-30v120h-30.839844c-7.484375-67.40625-64.796875-120-134.175781-120h-75.984375v30h75.984375c52.8125 0 96.636719 39.183594 103.9375 90h-30.433594c-6.964843-34.191406-37.269531-60-73.488281-60h-76v30h76c19.554688 0 36.226562 12.542969 42.421875 30h-118.421875v392h512v-392h-118.421875c6.195313-17.457031 22.867187-30 42.421875-30h76v-30h-76c-36.21875 0-66.523438 25.808594-73.492188 60h-30.433593c7.304687-50.816406 51.121093-90 103.925781-90zm46 452h-452v-332h452zm0 0"/><path d="m451 180h-390v240h390zm-30 210h-330v-180h330zm0 0"/><path d="m151 240h30v30h-30zm0 0"/><path d="m151 360h30v-30h15v-30c-20.921875 0-38.992188 0-60 0v30h15zm0 0"/><path d="m241 360h30v-30h15v-30c-20.921875 0-38.992188 0-60 0v30h15zm0 0"/><path d="m331 360h30v-30h15v-30c-20.996094 0-39.070312 0-60 0v30h15zm0 0"/><path d="m241 240h30v30h-30zm0 0"/><path d="m331 240h30v30h-30zm0 0"/></svg>