<svg height="512pt" viewBox="0 0 512 512" width="512pt" xmlns="http://www.w3.org/2000/svg"><path d="m512 190.925781-63.640625-63.644531-106.070313 106.070312-63.640624-63.640624 106.070312-106.070313-63.644531-63.640625-106.066407 106.070312-21.214843-21.214843-88.066407 88.066406-32.03125 160.164063-73.695312 96.734374 82.179688 82.179688 96.734374-73.695312 160.164063-32.03125 88.066406-88.066407-21.214843-21.214843zm-63.640625-21.214843 21.214844 21.214843-84.855469 84.855469-21.214844-21.214844zm-127.285156-127.28125 21.214843 21.210937-84.855468 84.855469-21.214844-21.210938zm-231.820313 319.734374 60.582032 60.582032-24.082032 18.347656-54.84375-54.847656zm-49.5 64.980469 12.808594-16.816406 49.109375 49.109375-16.816406 12.808594zm284.53125-48.507812-146.773437 29.355469-73.503907-73.5 29.355469-146.777344 18.003907-18.003906 190.921874 190.925781zm39.21875-39.214844-190.925781-190.925781 21.214844-21.210938 190.925781 190.921875zm0 0"/><path d="m215.007812 318.210938-21.214843-21.214844 21.214843-21.210938 21.210938 21.210938zm0 0"/></svg>