<svg height="512pt" viewBox="0 -16 512 512" width="512pt" xmlns="http://www.w3.org/2000/svg"><path d="m241.769531 265.257812 28.460938 9.484376 21.582031-64.742188h-30l8.417969-25.257812-28.460938-9.484376-21.582031 64.742188h30zm0 0"/><path d="m151 60v-30h30v-30c-22.558594 0-158.488281 0-181 0v30h30v30h-30v420h112.214844l30-30h227.570312l30 30h112.214844v-420zm-91-30h61v30h-61zm422 60v270h-452v-270zm-69.785156 360-30-30h-252.429688l-30 30h-69.785156v-60h452v60zm0 0"/><path d="m256 330c57.898438 0 105-47.101562 105-105s-47.101562-105-105-105-105 47.101562-105 105 47.101562 105 105 105zm0-180c41.355469 0 75 33.644531 75 75s-33.644531 75-75 75-75-33.644531-75-75 33.644531-75 75-75zm0 0"/></svg>