<svg height="512pt" viewBox="0 0 512 512" width="512pt" xmlns="http://www.w3.org/2000/svg"><path d="m512 62h-30v-62h-30v62h-30v180h30v240h-60v-30h30v-180h-30v-60h-30v60h-30v180h30v30h-60v-450h-302v480h482v-270h30zm-150 360v-30h30v30zm30-120v60h-30v-60zm-120 180h-242v-420h242zm210-390v60h-30v-60zm-30 120v-30h30v30zm0 0"/><path d="m241 92h-180v150h180zm-30 120h-120v-90h120zm0 0"/><path d="m151 452c49.625 0 90-40.375 90-90s-40.375-90-90-90-90 40.375-90 90 40.375 90 90 90zm-60-90c0-11.109375 3.046875-21.519531 8.332031-30.453125l82.121094 82.121094c-8.933594 5.285156-19.34375 8.332031-30.453125 8.332031-33.085938 0-60-26.914062-60-60zm120 0c0 11.109375-3.046875 21.519531-8.332031 30.453125l-82.121094-82.121094c8.933594-5.285156 19.34375-8.332031 30.453125-8.332031 33.085938 0 60 26.914062 60 60zm0 0"/></svg>