<svg height="512pt" viewBox="0 0 512 512" width="512pt" xmlns="http://www.w3.org/2000/svg"><path d="m180 122h-120v90h120zm-30 60h-60v-30h60zm0 0"/><path d="m180 242h-120v90h120zm-30 60h-60v-30h60zm0 0"/><path d="m180 362h-120v90h120zm-30 60h-60v-30h60zm0 0"/><path d="m480 62v-62h-30v62h-30v-62h-30v62h-30v63.984375l30 52.5v63.515625h30v195c0 24.8125-20.1875 45-45 45s-45-20.1875-45-45v-392c0-24.8125-20.1875-45-45-45h-135c-24.8125 0-45 20.1875-45 45v17h-105v450h240v-450h-105v-17c0-8.269531 6.730469-15 15-15h135c8.269531 0 15 6.730469 15 15v392c0 41.355469 33.644531 75 75 75s75-33.644531 75-75v-195h30v-63.402344l31-52.5v-64.097656zm-270 420h-180v-390h180zm271-364.097656-31 52.5v41.597656h-30v-41.484375l-30-52.5v-26.015625h91zm0 0"/></svg>