<svg height="512pt" viewBox="0 0 512 512" width="512pt" xmlns="http://www.w3.org/2000/svg"><path d="m346 0c-38.148438 0-71.609375 20.453125-90 50.964844-18.390625-30.511719-51.851562-50.964844-90-50.964844h-166v15c0 41.355469 33.644531 75 75 75 36.21875 0 66.523438-25.808594 73.492188-60h17.507812c41.355469 0 75 33.644531 75 75v227h-28.574219l-15 150h-46.425781v30h210v-30h-46.425781l-15-150h-28.574219v-227c0-41.355469 33.644531-75 75-75h17.507812c6.96875 34.191406 37.273438 60 73.492188 60 41.355469 0 75-33.644531 75-75v-15zm-271 60c-19.554688 0-36.238281-12.539062-42.429688-30h84.859376c-6.191407 17.460938-22.875 30-42.429688 30zm209.425781 422h-56.851562l12-120h32.851562zm152.574219-422c-19.558594 0-36.238281-12.539062-42.429688-30h84.859376c-6.191407 17.460938-22.871094 30-42.429688 30zm0 0"/></svg>