<svg height="512pt" viewBox="0 -16 512.0005 512" width="512pt" xmlns="http://www.w3.org/2000/svg"><path d="m448.347656 181.105469-10.609375 10.609375c-5.863281 5.863281-15.351562 5.863281-21.21875 0-5.863281-5.863282-5.863281-15.355469 0-21.21875l10.609375-10.609375-137.914062-137.914063c-14.167969-14.167968-33.007813-21.972656-53.042969-21.972656-20.039063 0-38.875 7.804688-53.042969 21.972656l-10.609375 10.609375 63.652344 63.652344-42.433594 42.433594 42.433594 42.4375-87.070313 87.070312-10.609374-10.609375-120.941407 120.941406c-23.402343 23.398438-23.402343 61.472657 0 84.871094 23.449219 23.453125 61.414063 23.457032 84.871094 0l120.9375-120.941406-10.609375-10.609375 87.074219-87.070313 21.21875 21.21875 10.609375-10.609374c5.859375-5.863282 15.351562-5.863282 21.214844 0 5.863281 5.863281 5.863281 15.351562 0 21.21875l-10.609376 10.609374 63.65625 63.652344 106.085938-106.089844zm-169.742187-84.871094-61.851563-61.851563c5.984375-2.863281 12.585938-4.375 19.414063-4.375 12.023437 0 23.328125 4.679688 31.828125 13.179688l116.699218 116.699219-63.65625 63.652343-84.871093-84.871093zm-197.402344 345.925781c-11.726563 11.726563-30.707031 11.730469-42.4375 0-11.699219-11.699218-11.699219-30.734375 0-42.433594l99.722656-99.722656 42.4375 42.433594zm110.332031-131.546875-21.21875-21.21875 87.070313-87.074219 21.21875 21.21875zm182.550782-76.464843c-3.671876-3.671876-7.867188-6.625-12.414063-8.800782l24.828125-24.832031c2.175781 4.550781 5.132812 8.746094 8.804688 12.414063 3.667968 3.671874 7.863281 6.628906 12.414062 8.804687l-24.832031 24.828125c-2.175781-4.546875-5.128907-8.742188-8.800781-12.414062zm10.609374 53.046874 63.652344-63.65625 21.21875 21.21875-63.652344 63.652344zm0 0"/></svg>