<svg height="512pt" viewBox="0 0 512 512" width="512pt" xmlns="http://www.w3.org/2000/svg"><path d="m475.269531 481.863281-30-60h-84.269531v-30h120c0-16.371093 0-135.808593 0-150h-30v50.730469l-90-45v-35.730469h90c0-57.710937 0-95.671875 0-150h-30v46.972657l-60-40v-32.671876l-105-36.164062-105 36.164062v32.671876l-60 40v-46.972657h-30v150h90v35.730469l-90 45v-50.730469h-30v150h120v30h-84.269531l-30 60h-36.730469v30h512v-30zm-219.269531-183.027343-40.457031-26.972657h80.917969zm75-13.945313v63.945313l-47.957031-31.972657zm-102.042969 31.972656-47.957031 31.972657v-63.945313zm27.042969 18.027344 40.457031 26.972656h-80.917969zm195-8.753906v35.726562h-90v-80.726562zm-195-207.300781-40.457031-26.972657h80.917969zm75-13.945313v63.945313l-47.957031-31.972657zm-102.042969 31.972656-47.957031 31.972657v-63.945313zm27.042969 18.027344 40.457031 26.972656h-80.917969zm165-10v36.972656h-60v-76.972656zm-165-113.160156 75 25.832031v4.300781h-150v-4.300781zm-165 150.132812v-36.972656l60-40v76.972656zm240 30v30h-150v-30zm-270 150v-35.726562l90-45v80.726562zm120 30h150v30h-150zm-95.730469 60h341.460938l15 30h-371.460938zm0 0"/></svg>