<svg height="512pt" viewBox="0 -16 512 512" width="512pt" xmlns="http://www.w3.org/2000/svg"><path d="m512 150h-34.289062l-15-60h-101.710938v-45c0-24.8125-20.1875-45-45-45h-120c-24.8125 0-45 20.1875-45 45v45h-101.710938l-15 60h-34.289062v90h23.703125l23.707031 240h417.183594l23.703125-240h23.703125zm-65.210938 0h-59.078124l-7.5-30h59.078124zm-97.5-30 7.5 30h-201.578124l7.5-30zm-168.289062-75c0-8.269531 6.730469-15 15-15h120c8.269531 0 15 6.730469 15 15v45h-150zm-108.289062 75h59.078124l-7.5 30h-59.078124zm-42.710938 60h452v30h-452zm91 60h30v30h-30zm60 60v-60h150v60h23.003906l-7.292968 150h-181.421876l-7.292968-150zm180-30v-30h30v30zm-307.148438-30h37.148438v60h36.960938l7.292968 150h-60.664062zm383.558594 210h-60.664062l7.292968-150h36.960938v-60h37.148438zm0 0"/></svg>