<svg height="512pt" viewBox="0 -16 512 512" width="512pt" xmlns="http://www.w3.org/2000/svg"><path d="m361 360h90v30h-90zm0 0"/><path d="m91 420h30v-30h30v-30h-30v-30h-30v30h-30v30h30zm0 0"/><path d="m0 0v480h512v-480zm482 450h-452v-420h452zm0 0"/><path d="m241 285c0-8.269531 6.730469-15 15-15s15 6.730469 15 15v15h180v-240h-390v240h180zm-27.429688-15h-122.570312v-180h330v180h-122.570312c-3.421876-9.652344-10.050782-17.792969-18.601563-23.152344l51.140625-74.230468c12.484375 8.367187 23.664062 18.898437 33.039062 31.378906l23.984376-18.023438c-30.347657-40.386718-78.441407-65.972656-131.992188-65.972656-53.527344 0-101.632812 25.5625-131.992188 65.976562l23.984376 18.019532c25.78125-34.316406 65.148437-53.996094 108.007812-53.996094 16.769531 0 32.996094 3.027344 48.09375 8.75l-56.527344 82.050781c-15.808594 3.007813-28.71875 14.3125-33.996094 29.199219zm0 0"/><path d="m256 330c-24.8125 0-45 20.1875-45 45s20.1875 45 45 45 45-20.1875 45-45-20.1875-45-45-45zm0 60c-8.269531 0-15-6.730469-15-15s6.730469-15 15-15 15 6.730469 15 15-6.730469 15-15 15zm0 0"/></svg>