<svg height="512pt" viewBox="0 0 512 512" width="512pt" xmlns="http://www.w3.org/2000/svg"><path d="m0 0v512h512v-512zm482 482h-452v-452h452zm0 0"/><path d="m256 451c107.523438 0 195-87.476562 195-195s-87.476562-195-195-195-195 87.476562-195 195 87.476562 195 195 195zm-154.789062-252.152344c29.035156 43.355469 76.800781 70.367188 129.066406 72.8125-26.480469 39.871094-72.25 62.992188-120.929688 59.902344-11.71875-22.652344-18.347656-48.347656-18.347656-75.5625 0-20.082031 3.613281-39.335938 10.210938-57.152344zm27.992187 162.613282c52.03125-3.496094 99.257813-31.355469 127.488281-75.367188 21.304688 42.875 18.453125 94.085938-8.59375 134.714844-47.710937-2.261719-90.179687-24.882813-118.894531-59.347656zm154.660156 57.175781c23.039063-46.832031 22.574219-101.699219-1.4375-148.1875 47.753907 3 90.660157 31.042969 112.324219 74.75-24.59375 38.125-64.464844 65.507812-110.886719 73.4375zm126.925781-105.484375c-29.039062-43.355469-76.804687-70.371094-129.066406-72.8125 26.476563-39.871094 72.234375-63 120.929688-59.902344 11.71875 22.652344 18.347656 48.347656 18.347656 75.5625 0 20.082031-3.613281 39.335938-10.210938 57.152344zm-28-162.621094c-52.027343 3.496094-99.257812 31.351562-127.488281 75.363281-21.296875-42.875-18.445312-94.078125 8.601563-134.703125 47.707031 2.261719 90.171875 24.878906 118.886718 59.339844zm-154.652343-57.167969c-23.039063 46.832031-22.574219 101.699219 1.441406 148.1875-47.757813-2.996093-90.664063-31.042969-112.328125-74.75 24.59375-38.125 64.464844-65.507812 110.886719-73.4375zm0 0"/><path d="m75.105469 54.800781 22.089843 20.300781-20.300781 22.089844-22.089843-20.300781zm0 0"/><path d="m435.09375 54.792969 22.089844 20.296875-20.296875 22.089844-22.089844-20.296876zm0 0"/><path d="m75.113281 414.792969 22.089844 20.296875-20.296875 22.089844-22.089844-20.296876zm0 0"/><path d="m436.894531 457.214844-22.085937-20.296875 20.296875-22.089844 22.089843 20.300781zm0 0"/></svg>