<svg height="512pt" viewBox="-91 0 512 512" width="512pt" xmlns="http://www.w3.org/2000/svg"><path d="m181.582031 368.292969 26.835938 13.414062 40.851562-81.707031h-60l19.148438-38.292969-26.835938-13.414062-40.851562 81.707031h60zm0 0"/><path d="m285 60c-5.855469 0-11.449219 1.136719-16.585938 3.179688-5.203124-19.09375-22.691406-33.179688-43.414062-33.179688-5.855469 0-11.449219 1.136719-16.585938 3.179688-5.203124-19.09375-22.691406-33.179688-43.414062-33.179688s-38.210938 14.085938-43.414062 33.179688c-5.136719-2.042969-10.730469-3.179688-16.585938-3.179688-24.8125 0-45 20.1875-45 45v77.578125c-4.695312-1.664063-9.742188-2.578125-15-2.578125-24.8125 0-45 20.1875-45 45v154.460938l60 92v70.539062h270v-407c0-24.8125-20.1875-45-45-45zm-255 280.539062v-143.898437l.085938-.011719c-.058594-.53125-.085938-1.082031-.085938-1.628906 0-8.269531 6.730469-15 15-15s15 6.730469 15 15v105h30v-225c0-8.269531 6.730469-15 15-15s15 6.730469 15 15v135h30v-165c0-8.269531 6.730469-15 15-15s15 6.730469 15 15v165h30v-135c0-8.269531 6.730469-15 15-15s15 6.730469 15 15v135h30v-105c0-8.269531 6.730469-15 15-15s15 6.730469 15 15v317h-216.875zm60 141.460938v-30h210v30zm0 0"/></svg>