<svg height="512pt" viewBox="0 0 512 512" width="512pt" xmlns="http://www.w3.org/2000/svg"><path d="m0 0v512h512v-512zm121 167c0 8.269531-6.730469 15-15 15s-15-6.730469-15-15 6.730469-15 15-15 15 6.730469 15 15zm330 315v-60h-30v60h-30v-60h-30v60h-30v-186.972656l48.035156-32.023438c7.519532 5.644532 16.859375 8.996094 26.964844 8.996094 24.8125 0 45-20.1875 45-45s-20.1875-45-45-45-45 20.1875-45 45c0 3.8125.480469 7.515625 1.378906 11.054688l-61.378906 40.917968v203.027344h-30v-306.972656l48.035156-32.023438c7.519532 5.644532 16.859375 8.996094 26.964844 8.996094 24.8125 0 45-20.1875 45-45s-20.1875-45-45-45-45 20.1875-45 45c0 3.8125.480469 7.515625 1.378906 11.054688l-61.378906 40.917968v323.027344h-211v-60h93.578125c6.195313 17.457031 22.867187 30 42.421875 30 24.8125 0 45-20.1875 45-45s-20.1875-45-45-45c-19.554688 0-36.226562 12.542969-42.421875 30h-93.578125v-362h61v94.578125c-17.460938 6.195313-30 22.867187-30 42.421875 0 24.8125 20.1875 45 45 45s45-20.1875 45-45c0-19.554688-12.539062-36.226562-30-42.421875v-94.578125h60v190.785156l-25.605469 25.609375.011719.011719c-5.878906-2.824219-12.460938-4.40625-19.40625-4.40625-24.8125 0-45 20.1875-45 45s20.1875 45 45 45 45-20.1875 45-45c0-6.945312-1.582031-13.527344-4.40625-19.40625l.011719.011719 34.394531-34.390625v-203.214844h271v32h-61v30h61v30h-61v30h61v180h-33.578125c-6.195313-17.457031-22.867187-30-42.421875-30-24.8125 0-45 20.1875-45 45s20.1875 45 45 45c19.554688 0 36.226562-12.542969 42.421875-30h33.578125v120zm-60-255c0-8.269531 6.730469-15 15-15s15 6.730469 15 15-6.730469 15-15 15-15-6.730469-15-15zm-60-120c0-8.269531 6.730469-15 15-15s15 6.730469 15 15-6.730469 15-15 15-15-6.730469-15-15zm-180 300c0-8.269531 6.730469-15 15-15s15 6.730469 15 15-6.730469 15-15 15-15-6.730469-15-15zm0-120c0 8.269531-6.730469 15-15 15s-15-6.730469-15-15 6.730469-15 15-15 15 6.730469 15 15zm270 60c0 8.269531-6.730469 15-15 15s-15-6.730469-15-15 6.730469-15 15-15 15 6.730469 15 15zm0 0"/></svg>