<svg height="512pt" viewBox="0 0 512 512" width="512pt" xmlns="http://www.w3.org/2000/svg"><path d="m512 30v-30c-16.871094 0-32.847656 12.789062-45 36.015625-12.152344-23.226563-28.128906-36.015625-45-36.015625v30c3.234375 0 10.835938 5.355469 18.515625 20.105469 7.890625 15.160156 11.484375 31.308593 11.484375 39.894531-7.082031 0-22.050781 0-30 0v64.796875c-34.382812-55.640625-95.929688-92.796875-166-92.796875s-131.617188 37.15625-166 92.796875v-64.796875c-7.992188 0-22.988281 0-30 0 0-8.585938 3.59375-24.734375 11.484375-39.894531 7.679687-14.75 15.28125-20.105469 18.515625-20.105469v-30c-16.871094 0-32.847656 12.789062-45 36.015625-12.152344-23.226563-28.128906-36.015625-45-36.015625v30c3.234375 0 10.835938 5.355469 18.515625 20.105469 7.890625 15.160156 11.484375 31.308593 11.484375 39.894531h-30v184.34375h.601562c8.949219 132.546875 119.621094 237.652344 254.394532 237.65625v-.023438c.734375.015626.183594.023438 2.011718.023438 140.460938-.003906 254.992188-114.015625 254.992188-255v-167h-30c0-8.585938 3.59375-24.734375 11.484375-39.894531 7.679687-14.75 15.28125-20.105469 18.515625-20.105469zm-256 62c90.980469 0 165 74.019531 165 165 0 74.871094-49.5 139.046875-120 158.808594v-31.515625c53.535156-18.902344 90-69.675781 90-127.292969 0-114.082031-131.667969-174.710938-218.632812-105.910156-32.644532 25.824218-51.367188 64.429687-51.367188 105.910156 0 57.617188 36.464844 108.390625 90 127.292969v31.515625c-70.5-19.761719-120-83.9375-120-158.808594 0-90.980469 74.019531-165 165-165zm105 165c0 41.125-23.890625 77.746094-60 94.863281 0 0 0-34.890625 0-34.902343 18.691406-14.074219 30-36.316407 30-59.960938 0-61.050781-69.070312-96.511719-118.683594-60.929688-19.609375 14.066407-31.316406 36.84375-31.316406 60.929688 0 23.644531 11.308594 45.886719 30 59.960938v.039062 34.863281c-36.109375-17.117187-60-53.738281-60-94.863281 0-32.253906 14.570312-62.28125 39.980469-82.382812 68.507812-54.199219 170.019531-3.496094 170.019531 82.382812zm-138.488281 29.980469c-7.285157-8.152344-11.511719-18.804688-11.511719-29.980469 0-14.441406 7.027344-28.105469 18.804688-36.550781 11.886718-8.527344 27.046874-10.609375 41.621093-5.726563 17.695313 6.476563 29.574219 23.449219 29.574219 42.277344 0 11.175781-4.226562 21.828125-11.511719 29.980469-8.242187-9.1875-20.199219-14.980469-33.488281-14.980469s-25.246094 5.792969-33.488281 14.980469zm-192.511719-29.980469v-137h30v137h1c0 91.421875 63.234375 169.222656 150 189.773438v20.226562c0 3.769531.472656 7.425781 1.347656 10.925781-103.738281-19.988281-182.347656-111.441406-182.347656-220.925781zm211 210v-150c0-8.269531 6.730469-15 15-15s15 6.730469 15 15v150c0 8.269531-6.730469 15-15 15s-15-6.730469-15-15zm241-210c0 110.722656-79.824219 201.324219-182.355469 220.960938.882813-3.511719 1.355469-7.179688 1.355469-10.960938v-20.226562c86.878906-20.574219 150-98.464844 150-189.773438h1v-137h30zm0 0"/></svg>