<svg height="512pt" viewBox="0 -16 512.00075 512" width="512pt" xmlns="http://www.w3.org/2000/svg"><path d="m512 31.820312-95.453125-31.820312-56.597656 56.597656-91.917969 7.070313-237.253906 237.257812c-41.035156 41.03125-41.039063 107.445313 0 148.480469 40.933594 40.9375 107.542968 40.941406 148.480468 0l237.257813-237.253906 7.070313-91.917969zm-406.980469 322.132813 42.421875-42.425781 21.210938 21.214844-42.421875 42.425781zm84.847657-42.421875-21.214844-21.214844 42.425781-42.425781 21.210937 21.214844zm63.636718-63.636719-21.214844-21.214843 127.273438-127.269532 21.210938 21.210938zm171.144532-213.570312 31.820312 10.605469-54.484375 54.480468-21.210937-21.210937zm-143.25 58.402343 45.957031-3.535156-243.550781 243.550782-21.210938-21.210938zm-229.410157 335.46875c-25.867187-25.867187-28.703125-65.542968-9.546875-94.394531l103.933594 103.933594c-29.101562 19.25-68.777344 16.070313-94.386719-9.539063zm335.46875-229.40625-218.804687 218.800782-21.210938-21.210938 243.550782-243.550781zm0 0"/></svg>