<svg height="512pt" viewBox="0 0 512 512" width="512pt" xmlns="http://www.w3.org/2000/svg"><path d="m512 190.957031-190.957031-190.957031-58.328125 58.328125-42.433594 127.304687-220.28125 220.28125 106.085938 106.085938 220.28125-220.28125 127.304687-42.433594zm-42.433594 0-24 24-148.523437-148.523437 24-24zm-187.183594-96.75 135.410157 135.410157-95.476563 31.824218-71.757812-71.757812zm-239.949218 311.707031 21.21875-21.21875 63.652344 63.652344-21.21875 21.21875zm106.089844 21.214844-63.652344-63.652344 148.519531-148.519531 63.652344 63.652344zm0 0"/><path d="m254.613281 278.609375-42.433593 42.433594-21.21875-21.21875 42.433593-42.433594zm0 0"/></svg>