<svg height="512pt" viewBox="-61 0 512 512.0002" width="512pt" xmlns="http://www.w3.org/2000/svg"><path d="m317.929688 43.535156c-45.824219-37.238281-105.90625-51.53125-164.832032-39.210937-74.324218 15.539062-134.25 76.097656-149.113281 150.695312-19.371094 97.210938 33.886719 185.503907 116.03125 219.796875v62.175782c0 41.359374 33.648437 75.007812 75.007813 75.007812 41.359374 0 75.007812-33.648438 75.007812-75.007812-6.152344-46.28125 8.304688-64.679688 25.921875-75.347657 56.691406-34.332031 94.09375-96.367187 94.09375-166.683593 0-58.992188-26.285156-114.183594-72.117187-151.425782zm-77.898438 393.457032c0 24.816406-20.191406 45.003906-45.007812 45.003906-24.816407 0-45.003907-20.1875-45.003907-45.003906v-17.003907h33.175781l11.828126 49.339844 11.832031-49.339844h33.175781zm40.378906-101.011719c-20.824218 12.609375-34.734375 32.15625-38.996094 54.003906h-27.367187l23.761719-99.09375c37.542968-16.75 62.230468-54.304687 62.230468-95.929687v-6.210938l-45.007812-45.007812-30.003906 30.003906-30.003906-30.003906-30 30.003906-30.003907-30.003906-45.007812 45.007812v6.210938c0 41.625 24.6875 79.179687 62.230469 95.929687l23.757812 99.09375h-25.980469v-15.167969c0-12.148437-7.242187-23.019531-18.453125-27.695312-73.527344-30.6875-113.890625-107.273438-98.15625-186.242188 12.546875-62.964844 63.109375-114.074218 125.824219-127.1875 50.046875-10.460937 100.992187 1.613282 139.777344 33.128906 38.785156 31.519532 61.03125 78.222657 61.03125 128.144532 0 58.101562-29.769531 110.816406-79.632813 141.015625zm-102.703125-67.554688-7.6875-2.71875c-28.019531-9.902343-47.421875-35.480469-49.765625-64.769531l14.765625-14.761719 30.003907 30.003907 30-30.003907 30.003906 30.003907 30.003906-30.003907 14.765625 14.761719c-2.34375 29.289062-21.75 54.867188-49.769531 64.769531l-7.6875 2.71875-17.316406 72.21875zm0 0"/></svg>