<svg height="512pt" viewBox="0 -31 512 512" width="512pt" xmlns="http://www.w3.org/2000/svg"><path d="m482 30v30h-32v-15c0-24.8125-20.1875-45-45-45-11.515625 0-22.03125 4.355469-30 11.496094-7.96875-7.140625-18.484375-11.496094-30-11.496094s-22.03125 4.355469-30 11.496094c-7.96875-7.140625-18.484375-11.496094-30-11.496094s-22.03125 4.355469-30 11.496094c-7.96875-7.140625-18.484375-11.496094-30-11.496094s-22.03125 4.355469-30 11.496094c-7.96875-7.140625-18.484375-11.496094-30-11.496094s-22.03125 4.355469-30 11.496094c-7.96875-7.140625-18.484375-11.496094-30-11.496094s-22.03125 4.355469-30 11.496094c-7.96875-7.140625-18.484375-11.496094-30-11.496094-24.8125 0-45 20.1875-45 45v300c0 19.554688 12.539062 36.226562 30 42.421875v32.578125h-30v30h450v-30h-30v-32.578125c17.460938-6.195313 30-22.867187 30-42.421875v-15h32v30h30s0-133.847656 0-150h-30v30h-32v-90h32v30h30c0-18.835938 0-134.386719 0-150zm-137 0c8.269531 0 15 6.730469 15 15v300c0 8.269531-6.730469 15-15 15s-15-6.730469-15-15v-300c0-8.269531 6.730469-15 15-15zm-60 0c8.269531 0 15 6.730469 15 15v300c0 8.269531-6.730469 15-15 15s-15-6.730469-15-15v-300c0-8.269531 6.730469-15 15-15zm-60 0c8.269531 0 15 6.730469 15 15v300c0 8.269531-6.730469 15-15 15s-15-6.730469-15-15v-300c0-8.269531 6.730469-15 15-15zm-60 0c8.269531 0 15 6.730469 15 15v300c0 8.269531-6.730469 15-15 15s-15-6.730469-15-15v-300c0-8.269531 6.730469-15 15-15zm-60 0c8.269531 0 15 6.730469 15 15v300c0 8.269531-6.730469 15-15 15s-15-6.730469-15-15v-300c0-8.269531 6.730469-15 15-15zm-75 15c0-8.269531 6.730469-15 15-15s15 6.730469 15 15v300c0 8.269531-6.730469 15-15 15s-15-6.730469-15-15zm30 375v-32.578125c5.585938-1.984375 10.671875-5.035156 15-8.917969 7.96875 7.140625 18.484375 11.496094 30 11.496094s22.03125-4.355469 30-11.496094c7.96875 7.144532 18.484375 11.496094 30 11.496094s22.03125-4.355469 30-11.496094c7.96875 7.144532 18.484375 11.496094 30 11.496094s22.03125-4.355469 30-11.496094c7.96875 7.144532 18.484375 11.496094 30 11.496094s22.03125-4.355469 30-11.496094c7.96875 7.144532 18.484375 11.496094 30 11.496094s22.03125-4.355469 30-11.496094c4.328125 3.882813 9.414062 6.933594 15 8.917969v32.578125zm360-75c0 8.269531-6.730469 15-15 15s-15-6.730469-15-15v-300c0-8.269531 6.730469-15 15-15s15 6.730469 15 15zm62-75v30h-32v-30zm-32-150v-30h32v30zm0 0"/></svg>