<svg height="512pt" viewBox="0 0 511 512" width="512pt" xmlns="http://www.w3.org/2000/svg"><path d="m512.410156 272.042969h-60.988281v-30.996094h-15v-119.976563h44.992187v-15c0-44.421874-28.125-84.207031-69.988281-99.003906l-19.996093-7.066406v31.085938h-29.992188v-31.085938l-19.996094 7.066406c-41.863281 14.796875-69.988281 54.582032-69.988281 99.003906v14.996094h44.992187v119.980469h-15v30.996094h-89.980468v-30.996094h-15v-119.980469h44.992187v-14.996094c0-44.421874-28.125-84.207031-69.988281-99.003906l-19.996094-7.066406v31.085938h-29.992187v-31.085938l-19.996094 7.066406c-41.863281 14.796875-69.988281 54.582032-69.988281 99.003906v15h44.992187v119.976563h-15v30.996094h-60.988281v209.960937h60.988281v29.996094h149.976563v-29.996094h89.980468v29.996094h149.976563v-29.996094h60.988281zm-180.96875-225.976563v15.011719h89.984375v-15.011719c14.574219 10.960938 24.789063 26.984375 28.476563 45.007813h-146.9375c3.6875-18.023438 13.902344-34.046875 28.476562-45.007813zm74.988282 75.003906v34.179688l-59.992188 19.996094v-54.175782zm-59.992188 85.792969 59.992188-19.996093v54.179687h-59.992188zm-254.953125-160.796875v15.011719h89.984375v-15.011719c14.574219 10.960938 24.789062 26.984375 28.476562 45.007813h-146.9375c3.6875-18.023438 13.902344-34.046875 28.476563-45.007813zm74.988281 75.003906v34.179688l-59.992187 19.996094v-54.175782zm-59.992187 85.792969 59.992187-19.996093v54.179687h-59.992187zm-75.984375 245.148438v-149.976563h30.992187v149.976563zm150.972656 29.992187h-89.984375v-210.960937h89.984375zm29.996094-179.96875h29.992187v149.976563h-29.992187zm59.988281 149.976563v-149.976563h29.992187v149.976563zm149.972656 29.992187h-89.984375v-210.960937h89.984375zm60.988281-29.992187h-30.992187v-149.976563h30.992187zm0 0"/></svg>