<svg height="512pt" viewBox="0 0 512 512" width="512pt" xmlns="http://www.w3.org/2000/svg"><path d="m391 180h90v30h-90zm0 0"/><path d="m91 150h-30v30h-30v30h30v30h30v-30h30v-30h-30zm0 0"/><path d="m421 30v-30h-45c-52.179688 0-97.539062 29.761719-120 73.199219-22.460938-43.4375-67.820312-73.199219-120-73.199219h-45v30h-91v30h91v30h45c24.8125 0 45 20.1875 45 45v377h150v-377c0-24.8125 20.1875-45 45-45h45v-30h91v-30zm-180 452h-30v-347c0-41.355469-33.644531-75-75-75h-15v-30h15c57.898438 0 105 47.101562 105 105zm150-422h-15c-41.355469 0-75 33.644531-75 75v347h-30v-347c0-57.898438 47.101562-105 105-105h15zm0 0"/></svg>