<svg height="512pt" viewBox="0 0 512 512" width="512pt" xmlns="http://www.w3.org/2000/svg"><path d="m331 241.976562h90v30h-90zm0 0"/><path d="m151 211.976562h-30v30h-30v30h30v30h30v-30h30v-30h-30zm0 0"/><path d="m481 421.976562v-270h-30v-60h-30v-36.425781l-91.167969-55.550781-73.832031 59.066406-73.832031-59.066406-91.167969 55.550781v36.425781h-30v60h-30v270h-31v90h512v-90zm-60-300v30h-30v-30zm-300-49.574218 58.832031-35.847656 76.167969 60.929687 76.167969-60.929687 58.832031 35.847656v19.574218h-30v60h-210v-60h-30zm-30 49.574218h30v30h-30zm-30 60h390v240h-390zm421 300h-452v-30h452zm0 0"/><path d="m269.925781 247.546875-27.851562-11.140625-38.230469 95.570312h60l-21.769531 54.429688 27.851562 11.140625 38.230469-95.570313h-60zm0 0"/></svg>