<svg height="512pt" viewBox="-31 0 512 512" width="512pt" xmlns="http://www.w3.org/2000/svg"><path d="m0 0v512h81.5l30-32h227.003906l30 32h81.496094v-512zm420 30v90h-390v-90zm-38.503906 452-30-32h-252.996094l-30 32h-38.5v-332h390v332zm0 0"/><path d="m60 420h330v-240h-330zm230.730469-210-15 30h-101.460938l-15-30zm-200.730469 0h35.730469l30 60h138.539062l30-60h35.730469v180h-270zm0 0"/><path d="m120 330h210v30h-210zm0 0"/><path d="m135 53.785156 21.210938 21.214844-21.210938 21.210938-21.214844-21.210938zm0 0"/><path d="m225 53.785156 21.210938 21.210938-21.210938 21.214844-21.214844-21.214844zm0 0"/><path d="m315 53.785156 21.210938 21.210938-21.210938 21.214844-21.214844-21.214844zm0 0"/></svg>