<svg height="512pt" viewBox="0 -5 512 512" width="512pt" xmlns="http://www.w3.org/2000/svg"><path d="m467 202.671875c24.8125 0 45-20.1875 45-45 0-24.816406-20.1875-45-45-45-7.816406 0-15.171875 2.003906-21.582031 5.523437l-135.699219-101.976562c-29.203125-23.21875-72.144531-21.6875-99.597656 5.761719l-47.894532 47.898437c-43.945312-8.691406-89.921874 5.070313-121.808593 36.957032l-10.605469 10.605468 190.917969 190.917969 10.605469-10.605469c31.886718-31.886718 45.644531-77.863281 36.957031-121.808594l47.894531-47.898437c14.601562-14.601563 21.914062-33.777344 21.929688-52.957031l87.238281 65.554687c-2.15625 5.257813-3.355469 11-3.355469 17.023438 0 10.28125 3.472656 19.757812 9.292969 27.34375l-103.726563 168.921875c-3.390625-.816406-6.925781-1.261719-10.566406-1.261719-24.8125 0-45 20.183594-45 45v15h-30v-30h-30v31.507813c-34.191406 6.96875-60 37.269531-60 73.492187v15h330v-15c0-41.355469-33.644531-75-75-75h-45v-15c0-10.28125-3.472656-19.757813-9.292969-27.34375l103.726563-168.921875c3.390625.820312 6.925781 1.265625 10.566406 1.265625zm0-60c8.269531 0 15 6.726563 15 15 0 8.269531-6.730469 15-15 15s-15-6.730469-15-15c0-8.273437 6.730469-15 15-15zm-247.039062 122.492187-146.953126-146.953124c8.476563-6.328126 17.816407-11.277344 27.652344-14.773438l134.074219 134.074219c-3.496094 9.832031-8.445313 19.175781-14.773437 27.652343zm75.015624-158.328124-59.894531 59.894531 2.230469 8.359375c2.300781 8.617187 3.457031 17.386718 3.53125 26.105468l-103.867188-103.867187c8.71875.074219 17.488282 1.226563 26.105469 3.53125l8.355469 2.230469 59.898438-59.894532c17.585937-17.585937 46.050781-17.589843 63.640624 0 17.542969 17.542969 17.542969 46.09375 0 63.640626zm154.453126 365.835937h-264.859376c6.191407-17.460937 22.871094-30 42.429688-30h180c19.558594 0 36.238281 12.539063 42.429688 30zm-147.429688-60v-15c0-8.273437 6.730469-15 15-15s15 6.726563 15 15v15zm0 0"/><path d="m0 187.671875h60v30h-60zm0 0"/><path d="m51.023438 308.363281-21.214844-21.214843 42.425781-42.425782 21.214844 21.214844zm0 0"/><path d="m121 277.671875h30v60h-30zm0 0"/></svg>