<svg height="512pt" viewBox="0 0 512 512.001" width="512pt" xmlns="http://www.w3.org/2000/svg"><path d="m342.117188 360.832031-21.214844-21.214843-10.609375 10.605468c-5.851563 5.851563-15.367188 5.851563-21.21875 0-17.546875-17.546875-46.101563-17.546875-63.648438 0l-10.609375 10.609375-21.214844-21.21875 63.648438-63.648437-21.214844-21.214844-63.648437 63.648438-21.21875-21.21875 10.609375-10.605469c17.546875-17.546875 17.546875-46.101563 0-63.648438-5.863282-5.867187-5.863282-15.355469 0-21.21875l10.605468-10.609375-21.214843-21.214844-10.609375 10.609376c-8.5 8.5-13.183594 19.800781-13.183594 31.824218 0 12.023438 4.683594 23.324219 13.183594 31.824219 5.867187 5.867187 5.863281 15.351563 0 21.21875l-10.605469 10.605469-21.21875-21.214844-108.734375 108.734375v148.515625h148.515625l108.734375-108.734375-21.214844-21.214844 10.605469-10.609375c5.851563-5.847656 15.367187-5.847656 21.21875 0 17.546875 17.550782 46.101563 17.546875 63.648437 0zm-206.027344 121.164063h-106.085938v-106.082032l36.296875-36.296874 106.085938 106.082031zm57.511718-57.511719-106.082031-106.085937 21.214844-21.214844 106.082031 106.082031zm0 0"/><path d="m363.484375 0-104.113281 104.113281 21.21875 21.214844-10.609375 10.609375c-5.851563 5.847656-15.367188 5.847656-21.21875 0-17.546875-17.550781-46.101563-17.546875-63.648438 0l-10.609375 10.605469 21.21875 21.21875 10.605469-10.609375c5.863281-5.859375 15.355469-5.863282 21.21875 0 8.773437 8.777344 20.296875 13.164062 31.824219 13.160156 11.523437 0 23.050781-4.386719 31.824218-13.160156l10.609376-10.609375 21.214843 21.21875-63.648437 63.648437 21.214844 21.21875 63.652343-63.652344 21.214844 21.21875-10.609375 10.605469c-17.546875 17.546875-17.546875 46.101563 0 63.652344 5.867188 5.863281 5.863281 15.351563 0 21.214844l-10.605469 10.605469 21.214844 21.21875 10.609375-10.609376c8.5-8.5 13.183594-19.800781 13.183594-31.824218 0-12.023438-4.683594-23.324219-13.183594-31.824219-5.851562-5.851563-5.851562-15.367187 0-21.21875l10.605469-10.605469 21.21875 21.214844 104.113281-104.109375v-148.515625zm-61.679687 104.113281 21.21875-21.21875 106.082031 106.082031-21.21875 21.21875zm180.191406 31.972657-31.675782 31.675781-106.082031-106.082031 31.675781-31.675782h106.082032zm0 0"/><path d="m329.511719 468.382812-22.964844-55.441406 27.71875-11.484375 22.96875 55.445313zm0 0"/><path d="m184.996094 41.105469 22.964844 55.445312-27.722657 11.480469-22.964843-55.441406zm0 0"/><path d="m405.765625 424.488281-42.433594-42.433593 21.214844-21.214844 42.433594 42.429687zm0 0"/><path d="m108.734375 85.015625 42.429687 42.433594-21.214843 21.214843-42.433594-42.429687zm0 0"/><path d="m459.414062 354.714844-55.441406-22.96875 11.480469-27.71875 55.445313 22.964844zm0 0"/><path d="m55.085938 154.777344 55.441406 22.964844-11.484375 27.722656-55.441407-22.96875zm0 0"/></svg>