<?xml version="1.0"?>
<svg xmlns="http://www.w3.org/2000/svg" xmlns:xlink="http://www.w3.org/1999/xlink" version="1.1" id="Capa_1" x="0px" y="0px" viewBox="0 0 511.999 511.999" style="enable-background:new 0 0 511.999 511.999;" xml:space="preserve" width="512px" height="512px"><g><g>
	<g>
		<path d="M362.481,40.66c-16.562-14.812-35.61-25.818-56.617-32.712c-21.934-7.2-44.906-9.523-68.281-6.907    C165.281,9.131,106.344,67.367,97.44,139.512c-6.632,53.737,13.795,106.705,54.644,141.689    c15.418,13.206,24.261,33.188,24.261,54.823v8.156c0,10.353,6.724,19.16,16.032,22.299v73.893    c0,15.248,10.874,28.002,25.274,30.92l4.358,21.792c2.192,10.961,11.896,18.917,23.075,18.917h21.811    c11.179,0,20.883-7.956,23.075-18.917l4.358-21.792c14.4-2.918,25.274-15.672,25.274-30.919v-73.893    c9.308-3.139,16.032-11.946,16.032-22.299v-8.826c0-20.816,9.465-41.095,25.969-55.637    c34.439-30.347,54.191-74.051,54.191-119.905C415.793,114.39,396.361,70.96,362.481,40.66z M275.26,490.143    c-0.795,3.973-4.314,6.858-8.367,6.858h-21.811c-4.053,0-7.572-2.885-8.366-6.859l-3.644-18.221h45.831L275.26,490.143z     M304.6,385.294l-9.061,0.647c-4.132,0.295-7.242,3.884-6.947,8.015c0.282,3.95,3.574,6.966,7.473,6.966    c0.18,0,0.36-0.006,0.542-0.019l7.993-0.571v17.026l-9.069,0.647c-4.131,0.295-7.241,3.884-6.946,8.016    c0.282,3.95,3.574,6.966,7.473,6.966c0.18,0,0.36-0.006,0.542-0.02l8-0.571v7.978c0.001,9.124-7.423,16.548-16.548,16.548h-0.013    c-0.018,0-0.036,0-0.054,0h-63.996c-0.017,0-0.034,0-0.052,0h-0.014c-9.125,0-16.548-7.423-16.548-16.548v-1.033l57.169-4.083    c4.132-0.295,7.242-3.884,6.947-8.016c-0.295-4.132-3.884-7.241-8.015-6.946l-56.101,4.007v-17.026l57.157-4.083    c4.132-0.295,7.242-3.884,6.947-8.015c-0.295-4.132-3.883-7.241-8.015-6.947l-56.089,4.006v-24.525H304.6V385.294z     M246.747,207.392h1.742v32.581c0,4.142,3.358,7.5,7.5,7.5c4.142,0,7.5-3.358,7.5-7.5v-32.581h1.742    c7.616,0,14.053-5.453,15.305-12.965l5.86-35.158c0.531,0.017,1.071,0.027,1.63,0.027c9.792,0,15.119-2.661,19.398-4.799    c2.104-1.051,3.879-1.938,6.144-2.512l-37.627,94.068c-2.258,5.646-3.403,11.591-3.403,17.671v0.297    c0,9.125-7.423,16.548-16.548,16.548c-9.125,0-16.548-7.424-16.548-16.548v-0.297c0-6.08-1.145-12.025-3.403-17.671    l-37.624-94.063c2.249,0.574,4.015,1.458,6.107,2.505c4.274,2.139,9.593,4.801,19.373,4.801c0.579,0,1.14-0.011,1.689-0.028    l5.86,35.159C232.694,201.94,239.13,207.392,246.747,207.392z M240.237,155.956c1.084-0.49,2.086-0.988,3.031-1.461    c3.73-1.866,6.426-3.215,12.665-3.215c6.254,0,8.955,1.35,12.694,3.217c0.967,0.483,1.993,0.993,3.107,1.493l-5.995,35.971    c-0.042,0.25-0.255,0.431-0.509,0.431h-18.483c-0.253,0-0.467-0.181-0.509-0.431L240.237,155.956z M272.536,290.865v61.848H239.44    v-61.848h0.001c4.814,2.979,10.483,4.703,16.548,4.703C262.053,295.568,267.722,293.843,272.536,290.865z M351.684,268.464    c-19.734,17.389-31.052,41.769-31.052,66.891v8.826c0,4.704-3.828,8.532-8.532,8.532h-24.565v-88.99    c0-4.163,0.784-8.234,2.33-12.1l45.229-113.073c1.539-3.846-0.332-8.21-4.178-9.749c-3.846-1.539-8.211,0.333-9.749,4.178    l-1.323,3.306c-9.616,0.049-14.889,2.676-19.128,4.794c-3.739,1.868-6.441,3.217-12.695,3.217s-8.956-1.35-12.695-3.217    c-4.279-2.138-9.605-4.798-19.397-4.798c-9.782,0-15.102,2.662-19.376,4.801c-3.73,1.866-6.426,3.215-12.665,3.215    c-6.236,0-8.93-1.349-12.659-3.215c-4.234-2.119-9.499-4.747-19.103-4.796l-1.323-3.306c-1.538-3.846-5.901-5.716-9.749-4.178    c-3.846,1.539-5.716,5.903-4.178,9.749l45.228,113.073c1.546,3.866,2.331,7.937,2.331,12.101v88.99h-24.564    c-4.705,0-8.532-3.828-8.532-8.532v-8.156c0-26.023-10.753-50.157-29.504-66.216c-37.018-31.705-55.529-79.727-49.514-128.46    c8.063-65.335,61.442-118.074,126.924-125.402c5.687-0.636,11.336-0.951,16.943-0.951c35.695,0,69.389,12.789,96.289,36.844    c30.703,27.459,48.312,66.812,48.312,107.972C400.793,201.362,382.893,240.964,351.684,268.464z" data-original="#000000" class="active-path" data-old_color="#000000" fill="#254697"/>
	</g>
</g></g> </svg>
