<?xml version="1.0"?>
<svg xmlns="http://www.w3.org/2000/svg" xmlns:xlink="http://www.w3.org/1999/xlink" version="1.1" id="Capa_1" x="0px" y="0px" viewBox="0 0 512 512" style="enable-background:new 0 0 512 512;" xml:space="preserve" width="512px" height="512px"><g><g>
	<g>
		<path d="M437.02,74.98C388.667,26.629,324.38,0,256,0S123.333,26.629,74.98,74.98C26.629,123.333,0,187.62,0,256    s26.629,132.667,74.98,181.02C123.333,485.371,187.62,512,256,512s132.667-26.629,181.02-74.98    C485.371,388.667,512,324.38,512,256S485.371,123.333,437.02,74.98z M426.413,426.413C380.894,471.932,320.374,497,256,497    s-124.894-25.068-170.413-70.587C40.068,380.894,15,320.374,15,256S40.068,131.106,85.587,85.587    C131.106,40.068,191.626,15,256,15s124.894,25.068,170.413,70.587C471.932,131.106,497,191.626,497,256    S471.932,380.894,426.413,426.413z" data-original="#000000" class="active-path" data-old_color="#000000" fill="#254697"/>
	</g>
</g><g>
	<g>
		<path d="M329.037,228.699c-3.012-4.683-8.132-7.479-13.701-7.479h-45.578l28.034-70.084c1.539-3.846-0.332-8.211-4.178-9.749    c-3.846-1.539-8.211,0.332-9.749,4.178l-32.148,80.369c-0.924,2.311-0.643,4.929,0.753,6.99c1.395,2.061,3.722,3.296,6.21,3.296    h56.655c0.467,0,0.833,0.199,1.085,0.592c0.252,0.393,0.283,0.808,0.089,1.234l-59.914,131.377    c-0.882,1.933-0.902,4.149-0.056,6.098c0.846,1.949,2.479,3.448,4.493,4.124l8.544,2.868l-35.301,35.414l-6.784-49.541    l6.727,2.258c2.017,0.677,4.226,0.465,6.077-0.581c1.852-1.047,3.172-2.831,3.632-4.907l11.25-50.782    c0.896-4.044-1.657-8.049-5.701-8.944c-4.044-0.896-8.049,1.656-8.944,5.7l-9.446,42.641l-10.278-3.45    c-2.461-0.826-5.172-0.321-7.169,1.333c-1.999,1.654-3,4.225-2.648,6.795l10.478,76.513c0.387,2.825,2.341,5.185,5.044,6.092    c0.782,0.263,1.587,0.391,2.386,0.391c1.961,0,3.882-0.771,5.313-2.206l54.521-54.696c1.832-1.837,2.583-4.491,1.988-7.016    c-0.596-2.525-2.454-4.563-4.913-5.389l-12.11-4.065l56.459-123.804C332.468,239.203,332.049,233.382,329.037,228.699z" data-original="#000000" class="active-path" data-old_color="#000000" fill="#254697"/>
	</g>
</g><g>
	<g>
		<path d="M317.636,92.654c-1.395-2.06-3.722-3.295-6.21-3.295H232.31c-3.272,0-6.167,2.121-7.152,5.241l-49.132,155.585    c-1.58,5.004-0.708,10.302,2.395,14.536c3.103,4.233,7.892,6.661,13.14,6.661h57.778l-1.551,7c-0.896,4.044,1.656,8.049,5.7,8.944    c0.546,0.121,1.092,0.18,1.629,0.18c3.439,0,6.541-2.382,7.315-5.88l3.571-16.122c0.492-2.22-0.05-4.543-1.474-6.317    c-1.423-1.773-3.575-2.805-5.849-2.805h-67.12c-0.434,0-0.784-0.177-1.041-0.528c-0.257-0.351-0.321-0.738-0.19-1.151    l47.477-150.344h62.542l-4.919,12.298c-1.539,3.846,0.332,8.21,4.178,9.749c3.846,1.538,8.21-0.333,9.749-4.179l9.033-22.583    C319.313,97.333,319.031,94.714,317.636,92.654z" data-original="#000000" class="active-path" data-old_color="#000000" fill="#254697"/>
	</g>
</g></g> </svg>
