<?xml version="1.0"?>
<svg xmlns="http://www.w3.org/2000/svg" xmlns:xlink="http://www.w3.org/1999/xlink" version="1.1" id="Capa_1" x="0px" y="0px" viewBox="0 0 512 512" style="enable-background:new 0 0 512 512;" xml:space="preserve" width="512px" height="512px"><g><g>
	<g>
		<path d="M501.285,338.416l-45.212-37.677c-0.118-0.098-0.186-0.243-0.186-0.396v-88.685c0-0.154,0.068-0.298,0.186-0.396    l45.212-37.677c3.182-2.652,3.612-7.381,0.96-10.563c-2.652-3.183-7.382-3.613-10.563-0.96l-45.212,37.677    c-3.548,2.957-5.583,7.301-5.583,11.92V248.5H271.516v-42.345c9.308-3.139,16.032-11.946,16.032-22.3    c0-12.976-10.557-23.532-23.532-23.532c-12.975,0-23.532,10.557-23.532,23.532c0,10.354,6.724,19.16,16.032,22.3V248.5H150.88    c-3.504-33.518-30.217-60.231-63.735-63.735V31.548c0-0.285,0.231-0.516,0.516-0.516h154.055    c3.139,9.308,11.946,16.032,22.3,16.032s19.16-6.724,22.3-16.032h154.055c0.285,0,0.516,0.231,0.516,0.516v120.239    c0,4.142,3.358,7.5,7.5,7.5c4.142,0,7.5-3.358,7.5-7.5V31.548c0-8.556-6.96-15.516-15.516-15.516H286.316    C283.176,6.724,274.37,0,264.016,0s-19.16,6.724-22.3,16.032H87.661c-8.556,0-15.516,6.96-15.516,15.516v153.217    C36.161,188.527,8.016,219.037,8.016,256s28.145,67.473,64.129,71.235v153.217c0,8.556,6.96,15.516,15.516,15.516h154.055    c3.139,9.308,11.946,16.032,22.3,16.032s19.16-6.724,22.3-16.032h154.055c8.556,0,15.516-6.96,15.516-15.516V360.21    c0-4.142-3.358-7.5-7.5-7.5c-4.142,0-7.5,3.358-7.5,7.5v120.242c0,0.285-0.231,0.516-0.516,0.516H286.316    c-3.139-9.308-11.946-16.032-22.3-16.032c-10.354,0-19.16,6.724-22.3,16.032H87.661c-0.285,0-0.516-0.231-0.516-0.516V327.235    c33.519-3.504,60.231-30.216,63.735-63.735h105.636v42.345c-9.308,3.139-16.032,11.946-16.032,22.3    c0,12.976,10.557,23.532,23.532,23.532s23.532-10.557,23.532-23.532c0-10.354-6.724-19.16-16.032-22.3V263.5h169.371v36.842    c0,4.619,2.035,8.963,5.583,11.92l45.212,37.677c1.402,1.168,3.104,1.738,4.797,1.738c2.149,0,4.282-0.919,5.766-2.699    C504.897,345.796,504.467,341.067,501.285,338.416z M264.016,15c4.695,0,8.515,3.812,8.531,8.503c0,0.01-0.001,0.019-0.001,0.029    s0.001,0.019,0.001,0.029c-0.016,4.691-3.836,8.503-8.531,8.503c-4.705,0-8.532-3.828-8.532-8.532    C255.484,18.828,259.311,15,264.016,15z M264.016,479.936c4.695,0,8.515,3.812,8.531,8.503c0,0.01-0.001,0.019-0.001,0.029    c0,0.01,0.001,0.019,0.001,0.029c-0.016,4.691-3.836,8.503-8.531,8.503c-4.705,0-8.532-3.828-8.532-8.532    C255.484,483.764,259.311,479.936,264.016,479.936z M79.645,199.371c12.914,0,24.825,4.354,34.363,11.66l-34.363,34.363    l-34.363-34.363C54.82,203.725,66.731,199.371,79.645,199.371z M23.016,256c0-12.914,4.354-24.825,11.66-34.363L69.039,256    l-34.363,34.363C27.371,280.826,23.016,268.914,23.016,256z M79.664,312.628c-0.007,0-0.013-0.001-0.019-0.001    s-0.013,0.001-0.019,0.001c-12.906-0.004-24.811-4.358-34.343-11.659l34.363-34.363l34.363,34.363    C104.475,308.271,92.571,312.624,79.664,312.628z M124.614,290.363L90.252,256l34.363-34.363    c7.306,9.537,11.66,21.449,11.66,34.363S131.92,280.825,124.614,290.363z M272.548,328.145c0,4.704-3.827,8.532-8.532,8.532    c-4.705,0-8.532-3.828-8.532-8.532c0-4.704,3.828-8.532,8.532-8.532C268.72,319.613,272.548,323.441,272.548,328.145z     M264.016,192.387c-4.704,0-8.532-3.828-8.532-8.532s3.827-8.532,8.532-8.532c4.705,0,8.532,3.828,8.532,8.532    S268.72,192.387,264.016,192.387z" data-original="#000000" class="active-path" data-old_color="#000000" fill="#FFFFFF"/>
	</g>
</g></g> </svg>
