<?xml version="1.0"?>
<svg xmlns="http://www.w3.org/2000/svg" xmlns:xlink="http://www.w3.org/1999/xlink" version="1.1" id="Capa_1" x="0px" y="0px" viewBox="0 0 512 512" style="enable-background:new 0 0 512 512;" xml:space="preserve" width="512px" height="512px"><g><g>
	<g>
		<path d="M311.599,272.03v-93.084l93.995-93.998c2.145-2.145,2.787-5.371,1.626-8.173c-1.161-2.803-3.896-4.63-6.929-4.63h-92.18    L262.24,3.34c-1.39-2.087-3.732-3.34-6.24-3.34c-2.508,0-4.85,1.253-6.24,3.34l-45.87,68.805h-92.18    c-3.034,0-5.768,1.827-6.929,4.63c-1.161,2.803-0.519,6.028,1.626,8.173l93.997,93.997v93.084c0,0.002,0,0.003,0,0.005v94.798    l-37.731,98.103h-18.897c-4.142,0-7.5,3.358-7.5,7.5V497h-16.549c-4.142,0-7.5,3.358-7.5,7.5c0,4.142,3.358,7.5,7.5,7.5h272.549    c4.142,0,7.5-3.358,7.5-7.5c0-4.142-3.358-7.5-7.5-7.5h-16.549v-24.564c0-4.142-3.358-7.5-7.5-7.5H349.33l-37.731-98.103v-94.798    C311.599,272.033,311.599,272.032,311.599,272.03z M200.403,157.732l-70.587-70.587h70.587V157.732z M226.01,360.725l29.99-29.99    l29.99,29.99H226.01z M281.943,375.726l-25.943,19.838l-25.943-19.838H281.943z M285.99,168.339h-59.98l29.99-29.99    L285.99,168.339z M226.01,87.145h59.98l-29.99,29.99L226.01,87.145z M285.99,183.339l-29.99,29.99l-29.99-29.99H285.99z     M296.596,193.946v59.98l-29.99-29.99L296.596,193.946z M285.99,264.532h-59.98l29.99-29.99L285.99,264.532z M285.99,279.532    l-29.99,29.99l-29.99-29.99H285.99z M266.607,320.129l29.99-29.99v59.98L266.607,320.129z M296.596,157.733l-29.99-29.991    l29.99-29.99V157.733z M255.999,21.021l34.083,51.124h-68.166L255.999,21.021z M215.403,97.751l29.99,29.991l-29.99,29.99V97.751z     M215.403,193.946l29.99,29.99l-29.99,29.99V193.946z M215.403,290.139l29.99,29.99l-29.99,29.99V290.139z M211.307,380.269    l32.347,24.736l-59.303,45.35L211.307,380.269z M344.178,479.938c0.014,0,0.029-0.002,0.043-0.002h16.504V497H151.273v-17.064    h16.504c0.014,0,0.029,0.002,0.043,0.002c0.009,0,0.017-0.002,0.026-0.002h112.199c4.142,0,7.5-3.358,7.5-7.5    c0-4.142-3.358-7.5-7.5-7.5h-90.07l66.024-50.489l66.023,50.489h-9.912c-4.142,0-7.5,3.358-7.5,7.5c0,4.142,3.358,7.5,7.5,7.5    h32.041C344.161,479.936,344.169,479.938,344.178,479.938z M327.648,450.355l-59.303-45.35l32.347-24.736L327.648,450.355z     M311.596,157.732V87.145h70.587L311.596,157.732z" data-original="#000000" class="active-path" data-old_color="#000000" fill="#FFFFFF"/>
	</g>
</g></g> </svg>
