<?xml version="1.0"?>
<svg xmlns="http://www.w3.org/2000/svg" xmlns:xlink="http://www.w3.org/1999/xlink" xmlns:svgjs="http://svgjs.com/svgjs" version="1.1" width="512" height="512" x="0" y="0" viewBox="0 0 512 512" style="enable-background:new 0 0 512 512" xml:space="preserve" class=""><g><g xmlns="http://www.w3.org/2000/svg"><path d="m61.257 64.084h118.25v30h-118.25z" fill="#254697" data-original="#000000" style="" class=""/><path d="m61.257 124.084h118.25v30h-118.25z" fill="#254697" data-original="#000000" style="" class=""/><path d="m61.257 184.084h118.25v30h-118.25z" fill="#254697" data-original="#000000" style="" class=""/><path d="m291.223 64.084h123.25v30h-123.25z" fill="#254697" data-original="#000000" style="" class=""/><path d="m291.223 124.084h123.25v30h-123.25z" fill="#254697" data-original="#000000" style="" class=""/><path d="m469.804 365.894c-7.596-8.823-15.599-18.066-23.122-26.729h27.448v-339.165h-186.988c-20.487 0-38.82 9.394-50.922 24.099-12.102-14.705-30.435-24.099-50.922-24.099h-185.298v339.165h280.933c-7.523 8.663-15.526 17.906-23.122 26.729-27.21 31.607-42.196 71.984-42.196 113.694v32.412h296.385v-32.412c0-41.71-14.985-82.087-42.196-113.694zm-129.009-49.716v-98.954h46.025v98.954s23.474 26.795 44.447 51h-134.919c20.972-24.204 44.447-51 44.447-51zm103.336-7.013h-23.582c-1.422-1.628-2.679-3.065-3.729-4.266v-27.505h27.311zm-156.989-279.165h156.989v217.394h-27.311v-60.17h-106.025v60.17h-23.653c-13.24 0-25.571 3.937-35.912 10.682v-192.145c0-.126-.009-.25-.01-.375.203-19.64 16.235-35.556 35.922-35.556zm-257.142 0h155.298c19.687 0 35.719 15.916 35.922 35.556-.001.126-.01.25-.01.375v192.124c-10.339-6.741-22.676-10.661-35.912-10.661h-155.298zm0 247.394h155.298c18.405 0 33.613 13.912 35.683 31.771h-190.981zm221.459 31.771c2.07-17.859 17.278-31.771 35.683-31.771h23.653v27.505c-1.05 1.2-2.307 2.638-3.729 4.266zm230.541 172.835h-236.385v-2.412c0-29.57 9.105-58.326 25.866-82.411h184.654c16.76 24.085 25.865 52.841 25.865 82.411z" fill="#254697" data-original="#000000" style="" class=""/></g></g></svg>
