<?xml version="1.0"?>
<svg xmlns="http://www.w3.org/2000/svg" xmlns:xlink="http://www.w3.org/1999/xlink" version="1.1" id="Capa_1" x="0px" y="0px" viewBox="0 0 511.999 511.999" style="enable-background:new 0 0 511.999 511.999;" xml:space="preserve" width="512px" height="512px"><g><g>
	<g>
		<path d="M459.56,158.266c-1.884-18.775-10.281-65.259-47.504-98.102V39.563c0-12.976-10.557-23.532-23.532-23.532H372.49    c-12.976,0-23.532,10.557-23.532,23.532V55.09l-41.759-26.099c0.418-1.753,0.646-3.58,0.646-5.459    C307.845,10.556,297.288,0,284.313,0s-23.532,10.557-23.532,23.532c0,3.064,0.595,5.99,1.665,8.678L88.072,179.757    c-3.555-2.159-7.724-3.403-12.178-3.403c-12.976,0-23.532,10.557-23.532,23.532c0,12.975,10.557,23.532,23.532,23.532    c2.386,0,4.69-0.36,6.862-1.023l134.401,188.164c-2.81,3.876-4.473,8.635-4.473,13.779c0,10.354,6.724,19.16,16.032,22.3v18.297    h-22.795c-4.142,0-7.5,3.358-7.5,7.5s3.358,7.5,7.5,7.5h94.424c4.705,0,8.532,3.828,8.532,8.532v8.532H163.555v-8.532    c0-4.705,3.828-8.532,8.532-8.532h0.489c4.142,0,7.5-3.358,7.5-7.5s-3.358-7.5-7.5-7.5h-0.489    c-12.976,0-23.532,10.557-23.532,23.532v16.032c0,4.142,3.358,7.5,7.5,7.5h160.322c4.142,0,7.5-3.358,7.5-7.5v-16.032    c0-12.976-10.557-23.532-23.532-23.532h-56.629v-18.297c9.308-3.139,16.032-11.946,16.032-22.3    c0-12.976-10.557-23.532-23.532-23.532c-2.386,0-4.689,0.36-6.861,1.023L94.953,213.665c2.81-3.876,4.473-8.635,4.473-13.778    c0-3.064-0.595-5.99-1.665-8.678L272.135,43.661c3.555,2.159,7.724,3.403,12.178,3.403c5.663,0,10.865-2.011,14.93-5.357    l41.788,26.117c-30.509,32.051-37.836,73.085-39.577,90.442c-0.437,4.355,0.993,8.711,3.924,11.95    c2.935,3.245,7.134,5.105,11.521,5.105h127.216c4.387,0,8.586-1.861,11.521-5.105C458.567,166.977,459.997,162.621,459.56,158.266    z M75.894,208.418c-4.705,0-8.532-3.828-8.532-8.532c0-4.704,3.828-8.532,8.532-8.532c4.704,0,8.532,3.828,8.532,8.532    C84.426,204.59,80.598,208.418,75.894,208.418z M236.216,415.806c4.705,0,8.532,3.828,8.532,8.532s-3.828,8.532-8.532,8.532    s-8.532-3.828-8.532-8.532S231.512,415.806,236.216,415.806z M284.313,32.063c-4.705,0-8.532-3.828-8.532-8.532    s3.828-8.532,8.532-8.532c4.704,0,8.532,3.828,8.532,8.532S289.018,32.063,284.313,32.063z M444.513,160.153    c-0.153,0.169-0.331,0.169-0.398,0.169H316.899c-0.067,0-0.245,0-0.397-0.168c-0.146-0.161-0.13-0.321-0.123-0.39    c1.71-17.048,9.324-59.302,42.874-88.651h13.237c4.142,0,7.5-3.358,7.5-7.5c0-4.142-3.358-7.5-7.5-7.5h-8.532V39.565    c0-4.705,3.828-8.532,8.532-8.532h16.034c4.705,0,8.532,3.828,8.532,8.532v24.048c0,2.226,0.989,4.336,2.699,5.762    c35.27,29.393,43.136,73.004,44.88,90.39C444.642,159.832,444.658,159.992,444.513,160.153z" data-original="#000000" class="active-path" data-old_color="#000000" fill="#254697"/>
	</g>
</g></g> </svg>
